<svg version="1.1" xmlns="http://www.w3.org/2000/svg" viewBox="0 0 1123.891653664635 340" width="1123.891653664635" height="340">
  <!-- svg-source:excalidraw -->
  
  <defs>
    <style class="style-fonts">
      @font-face {
        font-family: "Virgil";
        src: url("https://excalidraw.com/Virgil.woff2");
      }
      @font-face {
        font-family: "Cascadia";
        src: url("https://excalidraw.com/Cascadia.woff2");
      }
      @font-face {
        font-family: "Assistant";
        src: url("https://excalidraw.com/Assistant-Regular.woff2");
      }
    </style>
    
  </defs>
  <rect x="0" y="0" width="1123.891653664635" height="340" fill="#ffffff"></rect><g stroke-linecap="round"><g transform="translate(471.4491977613047 171.29875962983806) rotate(0 50 0)"><path d="M0.71 -0.75 C17.51 -0.73, 84.13 0.77, 100.69 0.74 M-0.38 1.47 C16.34 1.09, 83.49 -0.74, 100.11 -0.99" stroke="#1971c2" stroke-width="2" fill="none"></path></g><g transform="translate(471.4491977613047 171.29875962983806) rotate(0 50 0)"><path d="M72.15 9.89 C78.94 7.73, 89.53 3.51, 100.11 -0.99 M72.15 9.89 C78.2 6.72, 85.02 5.91, 100.11 -0.99" stroke="#1971c2" stroke-width="2" fill="none"></path></g><g transform="translate(471.4491977613047 171.29875962983806) rotate(0 50 0)"><path d="M71.7 -10.62 C78.73 -6.85, 89.45 -5.12, 100.11 -0.99 M71.7 -10.62 C77.82 -9.16, 84.74 -5.35, 100.11 -0.99" stroke="#1971c2" stroke-width="2" fill="none"></path></g></g><mask></mask><g stroke-linecap="round" transform="translate(30 110) rotate(0 100 50)"><path d="M25 0 C82.22 2.95, 135.96 0.35, 175 0 M25 0 C69.33 -0.86, 116.8 1.5, 175 0 M175 0 C192.37 -0.36, 202.72 5.14, 200 25 M175 0 C189.89 -3.81, 203.91 8.89, 200 25 M200 25 C203.24 45.38, 197.54 68.21, 200 75 M200 25 C199.44 42.37, 201.63 58.69, 200 75 M200 75 C201.07 89.91, 194.67 103.23, 175 100 M200 75 C202.45 90.92, 191.13 97.1, 175 100 M175 100 C145.27 101.15, 107.23 98.7, 25 100 M175 100 C137.18 95.33, 102.03 97.57, 25 100 M25 100 C11.72 102.67, -2.17 92.19, 0 75 M25 100 C9.26 97.48, 4 94.64, 0 75 M0 75 C-2.46 58.9, -1.42 35.75, 0 25 M0 75 C0.82 56.58, 1.74 35.85, 0 25 M0 25 C-3.01 8.14, 6.83 2.84, 25 0 M0 25 C-3.17 8.35, 11.73 0.05, 25 0" stroke="#e03131" stroke-width="2" fill="none"></path></g><g transform="translate(63.5 147.5) rotate(0 66.5 12.5)"><text x="66.5" y="0" font-family="Virgil, Segoe UI Emoji" font-size="20px" fill="#e03131" text-anchor="middle" style="white-space: pre;" direction="ltr" dominant-baseline="text-before-edge">archive.tar.gz</text></g><g transform="translate(250 150) rotate(0 74.5 12.5)"><text x="0" y="0" font-family="Virgil, Segoe UI Emoji" font-size="20px" fill="#e03131" text-anchor="start" style="white-space: pre;" direction="ltr" dominant-baseline="text-before-edge">, archive.tar.gz</text></g><g stroke-linecap="round" transform="translate(10 90) rotate(0 210 70)"><path d="M32 0 C125.35 -4.69, 217.99 -2.78, 388 0 M32 0 C167.54 -3.13, 299.88 -2.58, 388 0 M388 0 C408.4 -1.43, 417.47 6.79, 420 32 M388 0 C410.21 3.12, 416.46 6.65, 420 32 M420 32 C416.36 54.09, 422.23 79.42, 420 108 M420 32 C420.4 49.18, 420.91 68.43, 420 108 M420 108 C420.5 132.04, 411.82 141.48, 388 140 M420 108 C418.36 133.59, 406.13 138.99, 388 140 M388 140 C257.72 138.02, 126.42 135.73, 32 140 M388 140 C261.33 139.06, 132.89 138.76, 32 140 M32 140 C13.41 136.46, 0.01 131.38, 0 108 M32 140 C12.88 143.28, 3.47 125.42, 0 108 M0 108 C2.52 88.54, -2.6 64.49, 0 32 M0 108 C-0.9 82.52, 1.68 57.97, 0 32 M0 32 C-0.53 12.85, 14.33 3.79, 32 0 M0 32 C-2.03 12.84, 7.74 2.9, 32 0" stroke="#1971c2" stroke-width="2" fill="none"></path></g><g transform="translate(10 50) rotate(0 108.5 12.5)"><text x="0" y="0" font-family="Virgil, Segoe UI Emoji" font-size="20px" fill="#1971c2" text-anchor="start" style="white-space: pre;" direction="ltr" dominant-baseline="text-before-edge">pack.py (&amp; gpg agent)</text></g><g stroke-linecap="round" transform="translate(630 110) rotate(0 100 50)"><path d="M25 0 C60.76 1.08, 94.11 0.32, 175 0 M25 0 C58.92 -0.56, 89.68 -0.67, 175 0 M175 0 C188.95 -3.92, 202.23 8.55, 200 25 M175 0 C192.96 0.8, 196.57 10.07, 200 25 M200 25 C202.45 42.93, 198.61 53.88, 200 75 M200 25 C199.42 36.2, 200.8 49.18, 200 75 M200 75 C201.64 91.13, 188.97 103.06, 175 100 M200 75 C204.59 93.78, 193.52 96.59, 175 100 M175 100 C131.13 97.87, 91.31 99.93, 25 100 M175 100 C130.25 101.93, 88.28 101.97, 25 100 M25 100 C8 97.82, 0.87 88.43, 0 75 M25 100 C7.91 101.15, 2.65 93.21, 0 75 M0 75 C-0.34 59.92, -2.03 49.91, 0 25 M0 75 C-1.36 65.16, -0.38 53.51, 0 25 M0 25 C-1.76 10.42, 9.46 -3.46, 25 0 M0 25 C3.92 10.35, 12.44 2.86, 25 0" stroke="#2f9e44" stroke-width="2" fill="none"></path></g><g transform="translate(663.5 147.5) rotate(0 66.5 12.5)"><text x="66.5" y="0" font-family="Virgil, Segoe UI Emoji" font-size="20px" fill="#2f9e44" text-anchor="middle" style="white-space: pre;" direction="ltr" dominant-baseline="text-before-edge">archive.tar.gz</text></g><g transform="translate(850 150) rotate(0 126 12.5)"><text x="0" y="0" font-family="Virgil, Segoe UI Emoji" font-size="20px" fill="#2f9e44" text-anchor="start" style="white-space: pre;" direction="ltr" dominant-baseline="text-before-edge">, {SHA512 fingerprint}.gpg</text></g><g stroke-linecap="round"><g transform="translate(490 170) rotate(0 40 50)"><path d="M0.69 0.74 C3.91 14.05, 6.86 62.56, 20.05 79.11 C33.24 95.66, 69.9 96.69, 79.84 100.03 M-0.41 0.09 C2.6 13.59, 5.9 63.3, 19.13 80.18 C32.36 97.06, 68.88 98.09, 78.99 101.37" stroke="#1971c2" stroke-width="2" fill="none"></path></g><g transform="translate(490 170) rotate(0 40 50)"><path d="M49.38 106.18 C61.28 104.37, 69.18 102.28, 78.99 101.37 M49.38 106.18 C58.58 105.87, 66.38 103.67, 78.99 101.37" stroke="#1971c2" stroke-width="2" fill="none"></path></g><g transform="translate(490 170) rotate(0 40 50)"><path d="M53.21 86.02 C63.61 91.47, 70.14 96.62, 78.99 101.37 M53.21 86.02 C61.2 91.78, 67.84 95.68, 78.99 101.37" stroke="#1971c2" stroke-width="2" fill="none"></path></g></g><mask></mask><g stroke-linecap="round" transform="translate(630 230) rotate(0 100 50)"><path d="M25 0 C73.99 1.57, 127.94 -0.2, 175 0 M25 0 C63.54 -0.32, 99.59 -1.24, 175 0 M175 0 C193.23 -1.99, 200.12 8.26, 200 25 M175 0 C193.04 -0.64, 199.12 10.02, 200 25 M200 25 C200.05 39.65, 200.87 56.15, 200 75 M200 25 C199.83 40.46, 199.57 56.23, 200 75 M200 75 C201.82 90.41, 192.14 98.4, 175 100 M200 75 C198.79 90.87, 189.91 101.38, 175 100 M175 100 C142.42 101.29, 107.02 99.44, 25 100 M175 100 C124.63 99.08, 73.13 99.96, 25 100 M25 100 C6.84 99.59, -1.26 90.98, 0 75 M25 100 C6.07 99.86, -1.55 93.52, 0 75 M0 75 C1.47 62.34, -0.5 45.73, 0 25 M0 75 C-0.91 55.69, -0.01 36.33, 0 25 M0 25 C1.37 8.24, 9.98 1.68, 25 0 M0 25 C-1.27 7.28, 6.81 -1.41, 25 0" stroke="#2f9e44" stroke-width="2" fill="none"></path></g><g transform="translate(667.5 267.5) rotate(0 62.5 12.5)"><text x="62.5" y="0" font-family="Virgil, Segoe UI Emoji" font-size="20px" fill="#2f9e44" text-anchor="middle" style="white-space: pre;" direction="ltr" dominant-baseline="text-before-edge">record_book</text></g><g transform="translate(627.2677555070304 91.43276470053684) rotate(0 243.31194907880231 -22.681622371752724)" stroke="none"><path fill="#1e1e1e" d="M -1.15,-0.38 Q -1.15,-0.38 -0.82,-1.26 -0.48,-2.14 -0.00,-2.93 0.47,-3.71 1.00,-4.88 1.54,-6.04 2.04,-7.12 2.55,-8.20 3.03,-8.76 3.51,-9.31 4.04,-10.33 4.57,-11.35 5.07,-11.91 5.56,-12.47 6.06,-12.98 6.56,-13.50 7.13,-14.52 7.70,-15.54 8.37,-15.94 9.04,-16.35 9.89,-17.10 10.74,-17.85 11.45,-18.18 12.15,-18.50 12.94,-18.83 13.73,-19.15 14.83,-19.31 15.93,-19.47 16.85,-19.75 17.77,-20.02 19.50,-20.16 21.24,-20.29 23.14,-20.32 25.04,-20.35 26.73,-20.35 28.42,-20.35 30.33,-20.34 32.23,-20.33 35.12,-20.32 38.00,-20.31 40.71,-20.30 43.42,-20.30 45.75,-20.29 48.09,-20.28 50.86,-20.28 53.63,-20.27 57.13,-20.85 60.62,-21.44 64.24,-21.69 67.85,-21.94 70.57,-22.05 73.29,-22.16 75.63,-22.20 77.98,-22.24 81.05,-22.26 84.12,-22.28 86.91,-22.29 89.69,-22.29 92.36,-22.30 95.03,-22.30 97.94,-22.30 100.85,-22.30 102.98,-22.30 105.10,-22.30 107.19,-22.30 109.28,-22.30 111.95,-22.30 114.62,-22.30 116.94,-22.30 119.25,-22.30 122.02,-22.30 124.78,-22.30 128.03,-22.30 131.28,-22.30 133.85,-22.30 136.41,-22.30 138.39,-22.30 140.37,-22.30 143.29,-22.30 146.21,-22.30 148.93,-22.30 151.65,-22.30 153.70,-22.30 155.74,-22.30 157.80,-22.30 159.85,-22.30 162.80,-22.30 165.75,-22.30 168.19,-22.30 170.63,-22.30 172.55,-22.30 174.48,-22.30 177.07,-22.30 179.67,-22.30 181.96,-22.30 184.25,-22.30 186.11,-22.30 187.97,-22.30 189.95,-22.30 191.93,-22.30 193.95,-22.30 195.98,-22.30 197.43,-22.30 198.89,-22.30 200.10,-22.30 201.31,-22.30 202.41,-22.30 203.51,-22.30 204.15,-22.62 204.79,-22.94 205.45,-23.13 206.11,-23.32 206.56,-23.94 207.00,-24.57 207.42,-25.14 207.85,-25.72 208.45,-26.56 209.06,-27.40 209.04,-28.63 209.02,-29.85 209.38,-30.71 209.75,-31.57 209.89,-32.74 210.03,-33.90 210.10,-34.84 210.17,-35.77 210.52,-36.67 210.86,-37.56 210.98,-38.30 211.09,-39.05 211.18,-39.97 211.26,-40.89 211.27,-41.61 211.28,-42.33 211.62,-43.14 211.96,-43.95 212.08,-44.47 212.21,-45.00 213.50,-45.39 214.79,-45.77 215.35,-45.24 215.91,-44.71 216.13,-44.14 216.34,-43.57 217.06,-43.21 217.77,-42.84 218.35,-41.91 218.93,-40.99 219.39,-40.00 219.85,-39.01 220.30,-38.38 220.76,-37.76 221.25,-37.20 221.74,-36.65 222.25,-36.12 222.75,-35.60 223.29,-34.67 223.84,-33.75 224.51,-33.19 225.18,-32.63 225.84,-32.05 226.51,-31.47 227.29,-30.95 228.08,-30.43 228.78,-29.89 229.49,-29.35 230.83,-28.81 232.17,-28.27 232.75,-28.16 233.34,-28.05 234.06,-27.64 234.79,-27.23 235.64,-27.15 236.49,-27.06 237.77,-26.67 239.05,-26.29 239.84,-26.22 240.63,-26.15 241.41,-26.10 242.19,-26.05 243.06,-25.68 243.93,-25.31 245.11,-25.17 246.28,-25.03 247.49,-24.94 248.71,-24.84 250.12,-24.77 251.53,-24.70 253.02,-24.65 254.51,-24.61 256.33,-24.57 258.14,-24.54 259.81,-24.52 261.47,-24.49 263.06,-24.47 264.66,-24.46 266.23,-24.44 267.79,-24.43 269.59,-24.71 271.39,-25.00 272.79,-25.12 274.20,-25.24 275.39,-25.29 276.59,-25.34 277.69,-25.36 278.79,-25.38 279.85,-25.39 280.91,-25.40 281.66,-25.45 282.41,-25.51 283.32,-25.53 284.23,-25.55 284.91,-25.59 285.60,-25.64 286.48,-25.65 287.36,-25.65 288.33,-25.64 289.30,-25.63 290.31,-25.61 291.31,-25.60 292.33,-25.58 293.35,-25.56 294.97,-25.54 296.59,-25.52 298.16,-25.50 299.74,-25.48 301.23,-25.76 302.73,-26.04 304.32,-26.16 305.91,-26.29 307.47,-26.33 309.04,-26.38 310.89,-26.40 312.74,-26.42 314.71,-26.42 316.69,-26.43 319.30,-26.43 321.92,-26.43 323.62,-26.43 325.33,-26.43 327.53,-26.43 329.74,-26.43 331.57,-26.43 333.39,-26.43 335.36,-26.43 337.32,-26.43 339.34,-26.43 341.36,-26.43 342.81,-26.43 344.26,-26.43 345.77,-26.43 347.27,-26.43 348.50,-26.43 349.74,-26.43 350.85,-26.43 351.97,-26.43 352.74,-26.48 353.51,-26.53 354.43,-26.55 355.35,-26.57 356.34,-26.57 357.32,-26.57 358.33,-26.56 359.34,-26.55 360.37,-26.55 361.39,-26.54 362.42,-26.53 363.44,-26.53 364.77,-26.51 366.10,-26.50 367.62,-26.18 369.14,-25.87 371.49,-25.74 373.83,-25.62 375.73,-25.56 377.63,-25.50 380.21,-25.48 382.79,-25.45 384.48,-25.44 386.18,-25.42 388.08,-25.42 389.98,-25.41 391.98,-25.41 393.97,-25.41 395.71,-25.40 397.45,-25.40 398.78,-25.40 400.11,-25.40 401.57,-25.40 403.02,-25.40 404.23,-25.40 405.44,-25.40 406.55,-25.40 407.66,-25.40 408.72,-25.40 409.78,-25.40 410.83,-25.40 411.88,-25.40 413.01,-25.09 414.13,-24.78 414.84,-24.72 415.55,-24.65 416.42,-24.62 417.28,-24.59 418.25,-24.57 419.21,-24.55 420.51,-24.52 421.81,-24.49 422.95,-24.47 424.10,-24.45 424.88,-24.49 425.66,-24.53 426.59,-24.54 427.52,-24.55 428.21,-24.59 428.90,-24.63 429.78,-24.63 430.67,-24.64 431.34,-24.67 432.01,-24.71 432.89,-24.70 433.77,-24.70 434.74,-24.68 435.70,-24.66 436.41,-24.69 437.12,-24.72 438.01,-24.71 438.90,-24.70 439.88,-24.68 440.85,-24.66 441.56,-24.69 442.27,-24.72 443.16,-24.71 444.06,-24.70 444.73,-24.73 445.41,-24.76 446.29,-24.75 447.17,-24.74 447.84,-24.76 448.51,-24.79 449.09,-24.82 449.68,-24.85 450.54,-24.83 451.40,-24.82 452.26,-24.49 453.13,-24.15 454.34,-24.03 455.56,-23.91 456.19,-23.90 456.83,-23.90 457.39,-23.91 457.96,-23.92 459.38,-23.84 460.80,-23.76 461.70,-23.74 462.60,-23.72 463.28,-23.75 463.96,-23.77 464.58,-23.79 465.20,-23.80 465.99,-23.47 466.78,-23.13 467.62,-23.06 468.45,-22.99 469.43,-22.99 470.42,-23.00 471.14,-22.89 471.87,-22.79 472.36,-22.38 472.86,-21.98 473.47,-21.45 474.08,-20.92 474.88,-21.02 475.67,-21.12 477.01,-20.71 478.36,-20.29 479.13,-20.20 479.89,-20.10 480.68,-19.68 481.47,-19.26 482.38,-18.60 483.30,-17.93 483.99,-17.27 484.68,-16.62 485.26,-15.55 485.83,-14.49 485.92,-13.90 486.01,-13.31 486.35,-12.51 486.69,-11.71 487.27,-11.06 487.86,-10.41 487.97,-9.77 488.08,-9.14 488.11,-8.58 488.14,-8.03 488.16,-6.97 488.17,-5.92 488.17,-4.89 488.17,-3.85 488.18,-2.09 488.19,-0.32 488.15,-0.07 488.11,0.17 487.99,0.40 487.87,0.62 487.69,0.80 487.50,0.97 487.27,1.08 487.04,1.18 486.79,1.21 486.53,1.24 486.29,1.19 486.04,1.13 485.82,1.00 485.60,0.87 485.44,0.67 485.27,0.48 485.18,0.25 485.08,0.01 485.07,-0.23 485.06,-0.49 485.12,-0.73 485.19,-0.98 485.34,-1.19 485.48,-1.40 485.68,-1.55 485.88,-1.71 486.12,-1.79 486.36,-1.87 486.62,-1.87 486.87,-1.87 487.11,-1.79 487.35,-1.71 487.56,-1.55 487.76,-1.40 487.90,-1.19 488.04,-0.98 488.11,-0.73 488.18,-0.49 488.17,-0.23 488.15,0.01 488.06,0.25 487.97,0.48 487.80,0.68 487.64,0.87 487.42,1.00 487.20,1.13 486.95,1.19 486.70,1.24 486.45,1.21 486.20,1.18 485.97,1.08 485.74,0.97 485.55,0.80 485.37,0.62 485.25,0.40 485.13,0.17 485.09,-0.07 485.05,-0.32 485.05,-0.32 485.05,-0.32 485.06,-2.08 485.07,-3.85 485.06,-4.87 485.05,-5.89 485.03,-6.87 485.01,-7.85 485.08,-8.65 485.15,-9.45 484.48,-10.34 483.80,-11.23 483.47,-12.39 483.13,-13.55 482.65,-14.00 482.17,-14.45 482.17,-14.98 482.17,-15.52 481.64,-15.99 481.11,-16.47 480.28,-16.82 479.45,-17.16 478.87,-17.23 478.28,-17.29 477.58,-17.50 476.87,-17.71 476.19,-17.91 475.50,-18.12 474.95,-18.16 474.40,-18.20 473.78,-18.31 473.16,-18.43 472.55,-19.05 471.93,-19.68 471.15,-20.00 470.37,-20.32 469.83,-20.35 469.30,-20.38 468.75,-20.42 468.19,-20.46 467.59,-20.55 467.00,-20.64 466.03,-21.09 465.07,-21.55 464.51,-21.57 463.96,-21.59 463.28,-21.61 462.60,-21.63 461.69,-21.62 460.79,-21.60 459.35,-21.53 457.91,-21.46 457.33,-21.49 456.75,-21.53 456.08,-21.56 455.41,-21.60 454.48,-21.65 453.56,-21.70 452.44,-22.15 451.31,-22.60 450.49,-22.58 449.68,-22.57 449.09,-22.60 448.51,-22.63 447.84,-22.65 447.17,-22.68 446.29,-22.67 445.41,-22.66 444.73,-22.69 444.06,-22.71 443.16,-22.71 442.27,-22.70 441.56,-22.73 440.85,-22.76 439.88,-22.73 438.90,-22.71 438.01,-22.71 437.12,-22.70 436.41,-22.73 435.70,-22.76 434.74,-22.73 433.77,-22.71 432.89,-22.71 432.01,-22.71 431.34,-22.74 430.67,-22.78 429.78,-22.78 428.89,-22.79 428.20,-22.83 427.51,-22.87 426.59,-22.88 425.66,-22.89 424.88,-22.93 424.09,-22.98 422.94,-22.97 421.79,-22.96 420.48,-22.95 419.17,-22.93 418.18,-22.96 417.19,-22.98 416.24,-23.06 415.29,-23.13 414.53,-23.32 413.77,-23.51 412.82,-23.79 411.87,-24.07 410.83,-24.08 409.78,-24.08 408.72,-24.08 407.66,-24.08 406.55,-24.08 405.44,-24.08 404.23,-24.08 403.02,-24.08 401.57,-24.08 400.11,-24.08 398.78,-24.08 397.45,-24.08 395.71,-24.08 393.97,-24.08 391.98,-24.08 389.98,-24.08 388.08,-24.08 386.17,-24.08 384.47,-24.09 382.78,-24.10 380.18,-24.11 377.59,-24.13 375.67,-24.18 373.76,-24.23 371.31,-24.36 368.86,-24.48 367.48,-24.76 366.09,-25.04 364.77,-25.03 363.44,-25.01 362.42,-25.01 361.39,-25.00 360.37,-24.99 359.34,-24.99 358.33,-24.98 357.32,-24.97 356.34,-24.97 355.35,-24.97 354.43,-24.99 353.51,-25.01 352.74,-25.06 351.97,-25.11 350.85,-25.11 349.74,-25.11 348.50,-25.11 347.27,-25.11 345.77,-25.11 344.26,-25.11 342.81,-25.11 341.36,-25.11 339.34,-25.11 337.32,-25.11 335.36,-25.11 333.39,-25.11 331.57,-25.11 329.74,-25.10 327.53,-25.10 325.33,-25.10 323.62,-25.10 321.92,-25.09 319.31,-25.09 316.69,-25.08 314.73,-25.07 312.76,-25.05 310.92,-25.03 309.09,-25.00 307.55,-24.94 306.02,-24.88 304.51,-24.75 302.99,-24.62 301.37,-24.31 299.74,-23.99 298.17,-23.98 296.59,-23.96 294.97,-23.94 293.35,-23.91 292.33,-23.90 291.31,-23.88 290.31,-23.86 289.30,-23.84 288.33,-23.83 287.37,-23.82 286.48,-23.83 285.60,-23.84 284.92,-23.88 284.23,-23.92 283.33,-23.94 282.42,-23.95 281.67,-24.00 280.93,-24.05 279.87,-24.04 278.82,-24.03 277.73,-24.00 276.65,-23.98 275.48,-23.92 274.32,-23.86 272.97,-23.73 271.61,-23.60 269.70,-23.29 267.80,-22.98 266.23,-22.97 264.66,-22.96 263.06,-22.94 261.47,-22.93 259.81,-22.90 258.14,-22.88 256.32,-22.85 254.50,-22.82 253.01,-22.78 251.51,-22.74 250.09,-22.70 248.66,-22.65 247.39,-22.60 246.11,-22.54 245.18,-22.59 244.24,-22.63 243.13,-23.07 242.03,-23.50 241.18,-23.50 240.34,-23.49 239.74,-23.58 239.13,-23.67 238.46,-23.88 237.78,-24.10 236.99,-24.39 236.19,-24.68 235.58,-24.79 234.98,-24.90 234.31,-25.14 233.64,-25.39 233.21,-25.72 232.79,-26.04 232.07,-26.26 231.34,-26.49 230.53,-26.85 229.71,-27.22 229.03,-27.54 228.35,-27.87 227.73,-28.38 227.11,-28.89 226.17,-29.45 225.22,-30.01 224.60,-30.57 223.98,-31.13 223.03,-31.87 222.08,-32.60 221.59,-33.33 221.10,-34.05 220.58,-34.62 220.06,-35.18 219.52,-35.80 218.98,-36.43 218.42,-37.17 217.85,-37.91 217.31,-38.75 216.76,-39.59 216.03,-40.46 215.31,-41.34 214.64,-42.17 213.96,-43.00 213.50,-43.63 213.05,-44.25 213.63,-44.17 214.22,-44.09 213.81,-43.13 213.41,-42.17 213.37,-41.47 213.33,-40.77 213.30,-39.75 213.28,-38.73 213.13,-37.69 212.98,-36.66 212.72,-36.15 212.46,-35.65 212.48,-34.69 212.50,-33.73 212.46,-32.80 212.41,-31.86 211.97,-30.77 211.53,-29.67 211.52,-28.83 211.51,-28.00 211.38,-27.40 211.25,-26.80 210.62,-26.17 209.99,-25.54 209.77,-24.96 209.55,-24.39 209.18,-23.99 208.80,-23.59 208.38,-23.02 207.97,-22.44 207.23,-22.05 206.49,-21.66 205.91,-21.60 205.33,-21.54 204.43,-21.27 203.54,-20.99 202.42,-20.99 201.31,-20.99 200.10,-20.99 198.89,-20.99 197.43,-20.99 195.98,-20.99 193.95,-20.99 191.93,-20.99 189.95,-20.99 187.97,-20.99 186.11,-20.99 184.25,-20.99 181.96,-20.99 179.67,-20.99 177.07,-20.99 174.48,-20.99 172.55,-20.99 170.63,-20.99 168.19,-20.99 165.75,-20.99 162.80,-20.99 159.85,-20.99 157.80,-20.99 155.74,-20.99 153.70,-20.99 151.65,-20.99 148.93,-20.99 146.21,-20.99 143.29,-20.99 140.37,-20.99 138.39,-20.99 136.41,-20.99 133.85,-20.99 131.28,-20.99 128.03,-20.99 124.78,-20.99 122.02,-20.99 119.25,-20.99 116.94,-20.99 114.62,-20.99 111.95,-20.99 109.28,-20.99 107.19,-20.99 105.10,-20.99 102.98,-20.99 100.85,-20.98 97.94,-20.98 95.03,-20.98 92.36,-20.98 89.70,-20.97 86.91,-20.96 84.13,-20.95 81.06,-20.93 78.00,-20.91 75.67,-20.87 73.34,-20.82 70.64,-20.71 67.95,-20.60 64.39,-20.35 60.84,-20.10 57.24,-19.50 53.63,-18.90 50.86,-18.89 48.09,-18.88 45.75,-18.87 43.42,-18.87 40.71,-18.85 38.01,-18.84 35.12,-18.82 32.24,-18.80 30.35,-18.77 28.45,-18.73 26.77,-18.68 25.10,-18.62 23.26,-18.52 21.42,-18.42 19.95,-18.24 18.47,-18.06 17.40,-17.61 16.34,-17.16 15.57,-17.00 14.79,-16.84 13.64,-16.33 12.50,-15.83 11.97,-15.34 11.45,-14.85 10.83,-14.39 10.21,-13.92 9.68,-13.54 9.15,-13.16 8.81,-12.47 8.47,-11.77 7.99,-11.26 7.51,-10.74 6.79,-9.91 6.08,-9.08 5.76,-8.39 5.45,-7.70 4.74,-6.88 4.04,-6.06 3.47,-4.99 2.91,-3.93 2.65,-3.23 2.40,-2.53 2.03,-1.97 1.66,-1.41 1.41,-0.51 1.15,0.38 1.09,0.51 1.02,0.65 0.93,0.76 0.84,0.87 0.72,0.96 0.60,1.05 0.47,1.11 0.33,1.17 0.19,1.19 0.04,1.21 -0.09,1.20 -0.24,1.19 -0.38,1.14 -0.52,1.10 -0.64,1.02 -0.77,0.94 -0.87,0.83 -0.97,0.73 -1.04,0.60 -1.12,0.47 -1.16,0.33 -1.20,0.19 -1.20,0.04 -1.21,-0.09 -1.18,-0.24 -1.15,-0.38 -1.15,-0.38 L -1.15,-0.38 Z"></path></g><g transform="translate(810 10) rotate(0 32 12.5)"><text x="0" y="0" font-family="Virgil, Segoe UI Emoji" font-size="20px" fill="#1e1e1e" text-anchor="start" style="white-space: pre;" direction="ltr" dominant-baseline="text-before-edge">record</text></g></svg>