<svg version="1.1" xmlns="http://www.w3.org/2000/svg" viewBox="0 0 1375.590796837066 240" width="1375.590796837066" height="240">
  <!-- svg-source:excalidraw -->
  
  <defs>
    <style class="style-fonts">
      @font-face {
        font-family: "Virgil";
        src: url("https://excalidraw.com/Virgil.woff2");
      }
      @font-face {
        font-family: "Cascadia";
        src: url("https://excalidraw.com/Cascadia.woff2");
      }
      @font-face {
        font-family: "Assistant";
        src: url("https://excalidraw.com/Assistant-Regular.woff2");
      }
    </style>
    
  </defs>
  <rect x="0" y="0" width="1375.590796837066" height="240" fill="#ffffff"></rect><g stroke-linecap="round" transform="translate(10 90) rotate(0 380 70)"><path d="M32 0 C291.29 2.44, 550.01 2.01, 728 0 M32 0 C299.65 0.89, 567.8 0.76, 728 0 M728 0 C747.44 -0.64, 759.11 11.15, 760 32 M728 0 C748.2 1.4, 760.99 11.98, 760 32 M760 32 C760.62 55.39, 758.41 80.98, 760 108 M760 32 C758.89 53.07, 759 73.16, 760 108 M760 108 C761.02 129.17, 751.02 140.27, 728 140 M760 108 C759.34 128.02, 749.96 141.72, 728 140 M728 140 C555.48 140.28, 381.75 141.01, 32 140 M728 140 C458.04 141.12, 188.47 140.89, 32 140 M32 140 C12.05 138.14, 0.15 129.84, 0 108 M32 140 C12.48 137.71, 1.75 130.06, 0 108 M0 108 C1.23 91.97, -0.93 75.6, 0 32 M0 108 C-0.91 81.83, -1.1 54.2, 0 32 M0 32 C1.9 9.06, 9.35 0.47, 32 0 M0 32 C-0.11 11.08, 12.05 2.17, 32 0" stroke="#1971c2" stroke-width="2" fill="none"></path></g><g transform="translate(10 50) rotate(0 119.5 12.5)"><text x="0" y="0" font-family="Virgil, Segoe UI Emoji" font-size="20px" fill="#1971c2" text-anchor="start" style="white-space: pre;" direction="ltr" dominant-baseline="text-before-edge">unpack.py (&amp; gpg agent)</text></g><g stroke-linecap="round" transform="translate(30 110) rotate(0 100 50)"><path d="M25 0 C64.26 -0.48, 102.75 -1.62, 175 0 M25 0 C66.42 0.54, 107.01 1.67, 175 0 M175 0 C195.19 -1.47, 201.56 5.89, 200 25 M175 0 C187.88 -0.34, 197.79 6.35, 200 25 M200 25 C197.53 38.8, 200.05 55.9, 200 75 M200 25 C199.68 34.89, 201.05 46.05, 200 75 M200 75 C200.25 88.78, 190.5 98.92, 175 100 M200 75 C195.67 92.35, 193.13 96, 175 100 M175 100 C120.41 98.69, 65.82 101, 25 100 M175 100 C127.86 100.71, 81.14 102.26, 25 100 M25 100 C5.13 100.29, 1.38 91.56, 0 75 M25 100 C4.21 98.25, 2.15 96.26, 0 75 M0 75 C2.19 54.99, 1.13 34.96, 0 25 M0 75 C1.92 63.87, 1.82 52.02, 0 25 M0 25 C2.84 9.88, 4.53 3.42, 25 0 M0 25 C0.02 7.46, 9.41 -1.1, 25 0" stroke="#2f9e44" stroke-width="2" fill="none"></path></g><g transform="translate(63.5 147.5) rotate(0 66.5 12.5)"><text x="66.5" y="0" font-family="Virgil, Segoe UI Emoji" font-size="20px" fill="#2f9e44" text-anchor="middle" style="white-space: pre;" direction="ltr" dominant-baseline="text-before-edge">archive.tar.gz</text></g><g transform="translate(250 150) rotate(0 134 12.5)"><text x="0" y="0" font-family="Virgil, Segoe UI Emoji" font-size="20px" fill="#2f9e44" text-anchor="start" style="white-space: pre;" direction="ltr" dominant-baseline="text-before-edge">, {SHA512 fingerprint}.gpg ,</text></g><g stroke-linecap="round" transform="translate(550 110) rotate(0 100 50)"><path d="M25 0 C60.37 -1.24, 95.33 -2.57, 175 0 M25 0 C64.63 -2.33, 102.97 -2.09, 175 0 M175 0 C192.87 -0.44, 198.42 6.54, 200 25 M175 0 C191.72 1.24, 202.02 7.59, 200 25 M200 25 C201.34 37.89, 200.78 53.54, 200 75 M200 25 C200.04 36.67, 199.59 49.85, 200 75 M200 75 C198.21 90.36, 192.11 100.33, 175 100 M200 75 C200.92 91.58, 192.51 100.58, 175 100 M175 100 C125.09 101.51, 71.94 100.35, 25 100 M175 100 C120.23 100.66, 64.45 100.78, 25 100 M25 100 C7.5 99.81, 1.37 92.46, 0 75 M25 100 C6.43 100.49, -0.49 90.88, 0 75 M0 75 C-0.21 60.15, 0.92 42.34, 0 25 M0 75 C-0.36 60.32, 0.17 46.33, 0 25 M0 25 C0.97 9.95, 6.42 -1.03, 25 0 M0 25 C-1.98 10.45, 9.88 -2.09, 25 0" stroke="#2f9e44" stroke-width="2" fill="none"></path></g><g transform="translate(587.5 147.5) rotate(0 62.5 12.5)"><text x="62.5" y="0" font-family="Virgil, Segoe UI Emoji" font-size="20px" fill="#2f9e44" text-anchor="middle" style="white-space: pre;" direction="ltr" dominant-baseline="text-before-edge">record_book</text></g><g stroke-linecap="round"><g transform="translate(811.4491977613047 172.28139120982019) rotate(0 50 0)"><path d="M0.01 0.26 C16.72 0.3, 82.54 0.41, 99.26 0.54 M-1.45 -0.65 C15.75 -0.99, 84.72 -1.28, 101.58 -1.3" stroke="#1971c2" stroke-width="2" fill="none"></path></g><g transform="translate(811.4491977613047 172.28139120982019) rotate(0 50 0)"><path d="M73.43 9.05 C79.83 5.61, 86.28 5.17, 101.58 -1.3 M73.43 9.05 C85.19 4.43, 94.73 0.13, 101.58 -1.3" stroke="#1971c2" stroke-width="2" fill="none"></path></g><g transform="translate(811.4491977613047 172.28139120982019) rotate(0 50 0)"><path d="M73.36 -11.47 C79.83 -10.54, 86.29 -6.62, 101.58 -1.3 M73.36 -11.47 C85.18 -8.16, 94.74 -4.53, 101.58 -1.3" stroke="#1971c2" stroke-width="2" fill="none"></path></g></g><mask></mask><g stroke-linecap="round" transform="translate(970 110) rotate(0 100 50)"><path d="M25 0 C80.74 -2.3, 128.65 2.15, 175 0 M25 0 C55.16 0.61, 88.53 0.26, 175 0 M175 0 C194.46 -1.91, 200.53 4.63, 200 25 M175 0 C195.3 -3.71, 198.23 4.82, 200 25 M200 25 C202.09 39.29, 199.4 52.33, 200 75 M200 25 C199.9 36.29, 201.31 46.88, 200 75 M200 75 C203.3 93.45, 194.06 99.95, 175 100 M200 75 C202.23 94.22, 187.44 103.08, 175 100 M175 100 C120.75 103.42, 62.11 100.98, 25 100 M175 100 C125.41 99.56, 74.84 100.66, 25 100 M25 100 C12.03 97.23, 0.77 88.53, 0 75 M25 100 C9.17 99.22, 1.19 90.34, 0 75 M0 75 C-2.02 51.65, 1.85 38.15, 0 25 M0 75 C-0.15 56.62, -0.21 39.74, 0 25 M0 25 C-1.33 7.78, 9.63 0.36, 25 0 M0 25 C1.85 6.25, 4.47 -1.31, 25 0" stroke="#e03131" stroke-width="2" fill="none"></path></g><g transform="translate(1003.5 147.5) rotate(0 66.5 12.5)"><text x="66.5" y="0" font-family="Virgil, Segoe UI Emoji" font-size="20px" fill="#e03131" text-anchor="middle" style="white-space: pre;" direction="ltr" dominant-baseline="text-before-edge">archive.tar.gz</text></g><g transform="translate(1190 150) rotate(0 74.5 12.5)"><text x="0" y="0" font-family="Virgil, Segoe UI Emoji" font-size="20px" fill="#e03131" text-anchor="start" style="white-space: pre;" direction="ltr" dominant-baseline="text-before-edge">, archive.tar.gz</text></g><g transform="translate(971.1158369033719 93.89899576583252) rotate(0 197.237479966847 -24.087409057898128)" stroke="none"><path fill="#1e1e1e" d="M -1.26,-0.42 Q -1.26,-0.42 -1.06,-1.02 -0.86,-1.62 -0.80,-2.35 -0.73,-3.09 -0.44,-3.72 -0.16,-4.35 0.17,-5.11 0.50,-5.87 0.84,-6.60 1.18,-7.33 1.51,-7.86 1.85,-8.39 2.19,-9.25 2.53,-10.10 2.89,-10.54 3.24,-10.97 3.58,-11.46 3.91,-11.95 4.27,-12.48 4.64,-13.02 5.34,-13.52 6.04,-14.03 7.09,-14.73 8.14,-15.43 8.83,-15.77 9.51,-16.12 10.11,-16.55 10.71,-16.99 11.48,-17.45 12.26,-17.92 13.13,-18.17 13.99,-18.42 14.86,-19.08 15.72,-19.74 16.46,-20.21 17.20,-20.67 18.19,-21.05 19.18,-21.43 19.95,-21.77 20.72,-22.12 21.45,-22.47 22.18,-22.82 23.24,-22.99 24.30,-23.16 24.99,-23.39 25.68,-23.62 26.06,-24.06 26.44,-24.49 27.48,-24.82 28.52,-25.14 29.34,-25.26 30.16,-25.37 30.78,-25.60 31.40,-25.82 32.42,-25.93 33.44,-26.03 34.67,-26.03 35.90,-26.02 37.02,-26.00 38.14,-25.98 39.42,-25.95 40.70,-25.93 42.04,-25.91 43.39,-25.90 44.76,-25.88 46.14,-25.87 47.73,-25.86 49.31,-25.85 50.39,-25.84 51.47,-25.83 52.73,-25.82 53.99,-25.82 55.53,-25.81 57.07,-25.81 57.92,-25.85 58.78,-25.89 59.94,-25.87 61.11,-25.86 62.35,-26.05 63.60,-26.23 64.98,-26.31 66.37,-26.40 67.96,-26.43 69.56,-26.46 70.83,-26.47 72.11,-26.48 73.46,-26.49 74.81,-26.49 75.98,-26.49 77.15,-26.49 78.26,-26.49 79.36,-26.49 80.63,-26.49 81.90,-26.49 83.04,-26.49 84.18,-26.49 85.47,-26.49 86.76,-26.49 87.71,-26.51 88.66,-26.54 89.67,-26.54 90.68,-26.55 92.01,-26.12 93.35,-25.69 94.41,-25.53 95.48,-25.37 96.53,-25.29 97.59,-25.22 98.63,-25.19 99.68,-25.15 100.98,-24.93 102.28,-24.71 103.39,-24.62 104.49,-24.53 105.76,-24.49 107.03,-24.45 108.23,-24.23 109.43,-24.01 110.68,-23.92 111.94,-23.83 113.13,-23.58 114.33,-23.34 115.38,-23.24 116.44,-23.14 117.29,-23.14 118.14,-23.14 119.18,-22.91 120.21,-22.69 121.37,-22.59 122.53,-22.50 123.64,-22.45 124.74,-22.40 125.87,-22.17 127.00,-21.94 128.22,-21.85 129.44,-21.76 130.56,-21.72 131.69,-21.67 132.77,-21.65 133.85,-21.64 135.31,-21.63 136.77,-21.62 137.79,-21.62 138.82,-21.63 140.26,-21.62 141.69,-21.62 142.91,-21.61 144.12,-21.61 145.24,-21.61 146.36,-21.61 147.64,-21.61 148.91,-21.60 150.06,-21.60 151.20,-21.60 152.23,-21.80 153.26,-21.99 154.57,-22.08 155.87,-22.17 157.02,-22.21 158.17,-22.24 159.27,-22.26 160.36,-22.27 161.57,-22.48 162.79,-22.68 163.90,-22.96 165.02,-23.25 166.15,-23.38 167.28,-23.51 168.51,-23.76 169.75,-24.00 170.92,-24.12 172.10,-24.23 173.14,-24.47 174.19,-24.71 175.07,-24.85 175.95,-25.00 176.57,-25.42 177.20,-25.85 177.66,-26.25 178.12,-26.66 178.50,-27.05 178.88,-27.43 179.57,-28.20 180.27,-28.96 180.89,-29.69 181.51,-30.41 181.82,-30.92 182.12,-31.42 182.45,-31.94 182.79,-32.45 183.37,-33.05 183.94,-33.64 184.37,-34.08 184.79,-34.52 185.10,-35.00 185.40,-35.48 185.75,-36.08 186.11,-36.69 186.47,-37.34 186.83,-38.00 187.47,-38.89 188.11,-39.78 188.57,-40.40 189.03,-41.03 189.38,-41.63 189.73,-42.22 190.08,-42.88 190.43,-43.53 190.79,-44.21 191.14,-44.89 191.52,-45.47 191.90,-46.04 192.26,-46.51 192.63,-46.97 193.04,-47.62 193.46,-48.28 194.66,-48.57 195.86,-48.87 196.36,-48.51 196.85,-48.15 197.49,-47.52 198.14,-46.90 198.57,-46.23 199.00,-45.55 199.34,-44.89 199.68,-44.22 200.70,-43.27 201.73,-42.31 202.25,-41.56 202.78,-40.80 203.27,-40.43 203.75,-40.06 204.45,-39.13 205.14,-38.19 205.62,-37.67 206.09,-37.15 206.50,-36.74 206.92,-36.34 207.32,-35.71 207.72,-35.09 208.62,-34.69 209.53,-34.30 209.97,-33.94 210.42,-33.59 210.98,-33.24 211.55,-32.89 212.03,-32.57 212.51,-32.25 213.55,-31.97 214.60,-31.68 215.12,-31.60 215.65,-31.53 216.28,-31.48 216.90,-31.44 217.57,-31.41 218.24,-31.39 218.92,-31.37 219.61,-31.36 220.81,-31.06 222.00,-30.76 222.82,-30.66 223.64,-30.56 224.38,-30.53 225.12,-30.50 226.03,-30.46 226.95,-30.41 228.14,-30.35 229.33,-30.29 230.64,-30.25 231.95,-30.20 233.31,-30.17 234.67,-30.14 235.65,-30.14 236.63,-30.13 237.65,-30.12 238.67,-30.11 239.70,-30.10 240.74,-30.09 241.58,-30.12 242.42,-30.15 243.37,-30.15 244.33,-30.15 245.04,-30.36 245.75,-30.57 246.54,-30.70 247.34,-30.83 248.29,-30.86 249.25,-30.90 250.05,-30.93 250.85,-30.97 252.00,-30.93 253.14,-30.89 254.23,-30.87 255.32,-30.84 256.58,-30.82 257.85,-30.79 258.99,-30.78 260.13,-30.76 261.42,-30.75 262.70,-30.74 264.05,-30.73 265.40,-30.72 266.52,-30.91 267.64,-31.10 268.98,-31.18 270.32,-31.27 271.48,-31.30 272.65,-31.34 273.75,-31.35 274.85,-31.36 275.72,-31.41 276.59,-31.45 277.76,-31.44 278.93,-31.43 279.83,-31.46 280.73,-31.49 281.52,-31.52 282.30,-31.56 283.03,-31.60 283.77,-31.63 284.68,-31.63 285.60,-31.63 286.39,-31.66 287.18,-31.68 287.92,-31.70 288.65,-31.72 289.37,-31.75 290.08,-31.77 290.79,-31.79 291.49,-31.81 292.39,-31.79 293.30,-31.77 294.08,-31.78 294.87,-31.79 295.60,-31.80 296.34,-31.81 297.65,-31.75 298.97,-31.70 300.13,-31.65 301.29,-31.61 301.99,-31.64 302.68,-31.68 303.59,-31.76 304.49,-31.84 305.07,-31.86 305.65,-31.89 306.29,-31.90 306.94,-31.92 308.22,-31.85 309.50,-31.77 310.24,-31.79 310.98,-31.80 311.70,-31.82 312.42,-31.83 313.61,-32.03 314.79,-32.23 315.61,-32.33 316.43,-32.43 317.19,-32.48 317.94,-32.52 318.67,-32.55 319.39,-32.57 320.30,-32.55 321.21,-32.53 322.20,-32.49 323.19,-32.45 324.01,-32.46 324.83,-32.46 325.78,-32.44 326.74,-32.42 327.94,-32.37 329.15,-32.32 330.07,-32.32 330.98,-32.32 331.77,-32.35 332.56,-32.37 333.50,-32.36 334.44,-32.35 335.24,-32.37 336.04,-32.39 336.78,-32.41 337.52,-32.43 338.24,-32.45 338.95,-32.47 339.66,-32.49 340.36,-32.51 341.48,-32.56 342.59,-32.61 343.65,-32.65 344.71,-32.69 345.57,-32.66 346.43,-32.63 347.39,-32.59 348.36,-32.54 349.17,-32.53 349.98,-32.53 350.93,-32.50 351.88,-32.47 352.69,-32.47 353.49,-32.48 354.37,-32.27 355.25,-32.06 355.89,-32.00 356.54,-31.94 357.21,-31.92 357.88,-31.90 358.56,-31.90 359.25,-31.90 360.55,-31.90 361.85,-31.91 362.60,-31.90 363.34,-31.90 364.26,-31.87 365.18,-31.84 366.18,-31.80 367.17,-31.75 368.19,-31.71 369.22,-31.67 370.53,-31.43 371.83,-31.18 372.73,-31.10 373.63,-31.02 374.60,-30.97 375.57,-30.92 376.40,-30.93 377.23,-30.93 377.93,-30.74 378.64,-30.55 379.58,-30.25 380.52,-29.94 381.17,-29.85 381.82,-29.75 382.74,-29.22 383.65,-28.69 384.19,-28.26 384.74,-27.83 385.50,-27.64 386.27,-27.45 387.04,-27.10 387.82,-26.74 388.24,-26.39 388.66,-26.03 389.05,-25.66 389.44,-25.29 389.76,-24.73 390.08,-24.17 390.54,-23.67 391.00,-23.16 391.27,-22.60 391.55,-22.03 392.06,-21.22 392.57,-20.41 393.14,-19.70 393.71,-18.98 394.03,-18.41 394.35,-17.84 394.65,-17.21 394.96,-16.58 395.40,-16.11 395.84,-15.64 395.97,-14.75 396.10,-13.85 396.09,-12.88 396.09,-11.92 395.82,-11.18 395.55,-10.43 395.49,-8.83 395.43,-7.23 395.38,-6.96 395.33,-6.70 395.20,-6.47 395.07,-6.23 394.88,-6.05 394.68,-5.87 394.44,-5.76 394.19,-5.66 393.93,-5.63 393.66,-5.61 393.40,-5.67 393.14,-5.73 392.92,-5.87 392.69,-6.01 392.52,-6.22 392.35,-6.42 392.25,-6.67 392.16,-6.92 392.15,-7.19 392.14,-7.45 392.21,-7.71 392.29,-7.97 392.44,-8.19 392.60,-8.40 392.81,-8.56 393.02,-8.72 393.28,-8.80 393.53,-8.88 393.80,-8.88 394.07,-8.88 394.32,-8.79 394.57,-8.70 394.78,-8.53 394.99,-8.37 395.14,-8.14 395.28,-7.92 395.35,-7.66 395.42,-7.41 395.40,-7.14 395.38,-6.87 395.28,-6.63 395.18,-6.38 395.00,-6.18 394.82,-5.98 394.59,-5.84 394.36,-5.71 394.10,-5.66 393.84,-5.60 393.58,-5.64 393.31,-5.67 393.07,-5.78 392.83,-5.90 392.64,-6.09 392.45,-6.27 392.33,-6.51 392.20,-6.75 392.17,-7.01 392.13,-7.28 392.13,-7.28 392.13,-7.28 392.21,-8.98 392.30,-10.69 392.44,-11.24 392.58,-11.78 392.69,-12.41 392.79,-13.03 392.97,-13.68 393.14,-14.34 392.62,-14.97 392.11,-15.61 391.59,-16.38 391.08,-17.15 390.47,-18.03 389.87,-18.91 389.60,-19.36 389.33,-19.82 388.97,-20.35 388.62,-20.88 388.29,-21.39 387.96,-21.90 387.31,-22.82 386.67,-23.73 386.24,-24.14 385.81,-24.55 385.09,-24.91 384.37,-25.26 383.62,-25.73 382.87,-26.19 382.31,-26.50 381.75,-26.80 381.05,-27.21 380.35,-27.62 379.64,-28.01 378.93,-28.41 378.05,-28.78 377.16,-29.15 376.33,-29.18 375.51,-29.22 374.49,-29.24 373.47,-29.27 372.51,-29.36 371.55,-29.45 370.38,-29.60 369.22,-29.76 368.19,-29.72 367.17,-29.68 366.18,-29.64 365.18,-29.59 364.26,-29.56 363.34,-29.53 362.59,-29.53 361.84,-29.53 360.52,-29.56 359.20,-29.58 358.48,-29.61 357.76,-29.63 357.02,-29.69 356.27,-29.74 355.48,-29.85 354.69,-29.97 354.08,-30.16 353.48,-30.35 352.68,-30.35 351.88,-30.36 350.93,-30.33 349.98,-30.30 349.17,-30.29 348.36,-30.29 347.39,-30.24 346.43,-30.19 345.57,-30.17 344.71,-30.14 343.65,-30.18 342.59,-30.22 341.48,-30.27 340.36,-30.32 339.66,-30.34 338.95,-30.35 338.24,-30.38 337.52,-30.40 336.78,-30.42 336.04,-30.44 335.24,-30.46 334.44,-30.48 333.50,-30.47 332.56,-30.46 331.77,-30.48 330.98,-30.50 330.07,-30.50 329.15,-30.50 327.94,-30.46 326.74,-30.41 325.79,-30.39 324.84,-30.36 324.02,-30.36 323.20,-30.37 322.21,-30.32 321.23,-30.28 320.34,-30.24 319.44,-30.21 318.75,-30.20 318.06,-30.19 317.38,-30.17 316.69,-30.14 316.02,-30.07 315.34,-30.00 313.88,-29.80 312.42,-29.60 311.70,-29.62 310.98,-29.63 310.24,-29.64 309.50,-29.66 308.22,-29.59 306.94,-29.51 306.29,-29.53 305.65,-29.54 305.07,-29.57 304.49,-29.59 303.59,-29.67 302.68,-29.75 301.99,-29.79 301.29,-29.82 300.13,-29.78 298.97,-29.73 297.65,-29.68 296.34,-29.62 295.60,-29.63 294.87,-29.64 294.08,-29.65 293.30,-29.66 292.39,-29.64 291.49,-29.62 290.79,-29.64 290.08,-29.66 289.37,-29.68 288.65,-29.71 287.92,-29.73 287.18,-29.75 286.39,-29.77 285.60,-29.80 284.68,-29.80 283.77,-29.79 283.03,-29.83 282.30,-29.87 281.52,-29.90 280.73,-29.94 279.84,-29.97 278.94,-29.99 277.77,-29.98 276.60,-29.96 275.73,-29.99 274.87,-30.02 273.78,-30.01 272.69,-29.99 271.55,-29.95 270.41,-29.91 269.14,-29.82 267.87,-29.74 266.64,-29.53 265.41,-29.31 264.06,-29.30 262.70,-29.30 261.42,-29.28 260.13,-29.27 258.99,-29.25 257.85,-29.24 256.59,-29.21 255.32,-29.19 254.24,-29.15 253.15,-29.12 252.02,-29.07 250.89,-29.02 250.11,-29.03 249.32,-29.03 248.44,-28.99 247.55,-28.96 246.86,-28.91 246.17,-28.87 245.26,-28.68 244.34,-28.49 243.38,-28.49 242.42,-28.49 241.58,-28.52 240.74,-28.55 239.70,-28.54 238.67,-28.53 237.65,-28.51 236.63,-28.50 235.65,-28.50 234.67,-28.50 233.31,-28.47 231.95,-28.44 230.63,-28.41 229.32,-28.37 228.11,-28.32 226.91,-28.27 225.96,-28.26 225.01,-28.25 224.22,-28.29 223.42,-28.33 222.50,-28.41 221.58,-28.48 220.58,-28.59 219.57,-28.70 218.87,-28.70 218.16,-28.70 217.44,-28.72 216.73,-28.73 215.98,-28.77 215.23,-28.82 214.41,-28.95 213.60,-29.09 213.07,-29.29 212.54,-29.50 211.52,-29.93 210.49,-30.36 209.61,-30.99 208.73,-31.61 208.08,-32.19 207.43,-32.76 206.66,-33.21 205.89,-33.66 205.55,-34.20 205.20,-34.75 204.81,-35.20 204.41,-35.66 203.92,-36.23 203.44,-36.80 202.82,-37.47 202.20,-38.14 201.48,-38.73 200.76,-39.33 200.35,-39.88 199.94,-40.44 199.30,-40.99 198.67,-41.53 197.96,-42.17 197.25,-42.82 196.90,-43.41 196.55,-44.01 195.97,-44.76 195.40,-45.51 194.86,-46.27 194.33,-47.02 195.00,-47.01 195.68,-47.00 195.10,-46.18 194.52,-45.36 193.86,-44.59 193.20,-43.83 192.84,-43.13 192.48,-42.43 192.10,-41.73 191.73,-41.03 191.31,-40.33 190.88,-39.64 190.47,-39.10 190.06,-38.57 189.60,-37.68 189.13,-36.79 188.79,-36.09 188.44,-35.39 188.07,-34.69 187.70,-34.00 187.25,-33.30 186.80,-32.61 186.38,-32.18 185.97,-31.75 185.35,-31.07 184.73,-30.39 184.45,-29.86 184.18,-29.32 183.67,-28.83 183.17,-28.34 182.36,-27.64 181.55,-26.94 180.83,-26.44 180.12,-25.93 179.65,-25.59 179.18,-25.24 178.58,-24.86 177.99,-24.49 177.08,-24.02 176.17,-23.56 175.32,-23.49 174.48,-23.43 173.35,-23.17 172.22,-22.92 171.11,-22.82 170.01,-22.72 168.72,-22.46 167.42,-22.20 166.38,-22.09 165.34,-21.97 164.17,-21.68 163.00,-21.38 161.69,-21.17 160.38,-20.96 159.30,-20.94 158.22,-20.93 157.09,-20.89 155.96,-20.85 154.73,-20.77 153.50,-20.69 152.35,-20.49 151.21,-20.28 150.06,-20.28 148.91,-20.28 147.64,-20.28 146.36,-20.27 145.24,-20.27 144.12,-20.27 142.91,-20.27 141.69,-20.27 140.25,-20.27 138.81,-20.26 137.79,-20.27 136.76,-20.28 135.30,-20.29 133.83,-20.30 132.74,-20.31 131.64,-20.32 130.49,-20.36 129.34,-20.40 128.04,-20.49 126.73,-20.58 125.71,-20.79 124.69,-20.99 123.55,-21.02 122.42,-21.06 121.15,-21.15 119.88,-21.23 118.97,-21.45 118.07,-21.67 117.19,-21.75 116.31,-21.83 115.19,-21.94 114.06,-22.05 112.95,-22.28 111.84,-22.51 110.51,-22.61 109.19,-22.71 108.09,-22.92 106.99,-23.13 105.69,-23.17 104.39,-23.20 103.22,-23.30 102.06,-23.39 100.85,-23.60 99.64,-23.80 98.57,-23.83 97.49,-23.86 96.39,-23.93 95.28,-24.00 94.09,-24.18 92.91,-24.36 91.79,-24.73 90.66,-25.11 89.66,-25.11 88.66,-25.12 87.71,-25.14 86.76,-25.17 85.47,-25.17 84.18,-25.17 83.04,-25.17 81.90,-25.16 80.63,-25.16 79.36,-25.16 78.26,-25.16 77.16,-25.16 75.98,-25.15 74.81,-25.15 73.47,-25.14 72.13,-25.13 70.86,-25.11 69.59,-25.09 68.02,-25.05 66.46,-25.01 65.14,-24.92 63.81,-24.83 62.46,-24.62 61.11,-24.40 59.94,-24.39 58.78,-24.37 57.92,-24.41 57.07,-24.45 55.53,-24.45 53.99,-24.44 52.73,-24.43 51.47,-24.43 50.39,-24.42 49.31,-24.41 47.73,-24.40 46.14,-24.39 44.77,-24.37 43.39,-24.35 42.05,-24.33 40.71,-24.30 39.44,-24.27 38.17,-24.23 37.07,-24.17 35.97,-24.11 34.83,-24.02 33.68,-23.92 32.88,-23.83 32.09,-23.73 31.26,-23.47 30.44,-23.21 29.75,-23.14 29.06,-23.07 28.44,-22.96 27.82,-22.85 27.13,-22.26 26.43,-21.66 25.54,-21.37 24.65,-21.07 23.89,-20.94 23.12,-20.81 22.39,-20.45 21.66,-20.09 20.87,-19.71 20.09,-19.33 19.31,-18.95 18.53,-18.57 17.95,-18.19 17.37,-17.81 16.67,-17.20 15.97,-16.59 15.32,-16.26 14.67,-15.94 14.14,-15.82 13.62,-15.70 13.02,-15.29 12.42,-14.89 11.66,-14.22 10.90,-13.56 10.30,-13.21 9.69,-12.85 9.22,-12.55 8.75,-12.25 8.27,-11.85 7.80,-11.46 7.32,-11.10 6.84,-10.75 6.56,-10.18 6.27,-9.61 5.72,-9.01 5.17,-8.40 4.96,-7.86 4.74,-7.33 4.47,-6.76 4.20,-6.19 3.79,-5.75 3.37,-5.32 3.01,-4.64 2.66,-3.96 2.48,-3.45 2.31,-2.93 2.11,-2.40 1.91,-1.86 1.79,-1.32 1.66,-0.78 1.46,-0.18 1.26,0.42 1.19,0.56 1.12,0.71 1.02,0.83 0.92,0.95 0.79,1.05 0.66,1.15 0.51,1.21 0.37,1.27 0.21,1.30 0.05,1.33 -0.10,1.31 -0.26,1.30 -0.41,1.25 -0.57,1.20 -0.70,1.11 -0.84,1.03 -0.95,0.91 -1.06,0.80 -1.14,0.66 -1.22,0.52 -1.26,0.36 -1.31,0.21 -1.32,0.05 -1.32,-0.10 -1.29,-0.26 -1.26,-0.42 -1.26,-0.42 L -1.26,-0.42 Z"></path></g><g transform="translate(1150 10) rotate(0 15 12.5)"><text x="0" y="0" font-family="Virgil, Segoe UI Emoji" font-size="20px" fill="#1e1e1e" text-anchor="start" style="white-space: pre;" direction="ltr" dominant-baseline="text-before-edge">file</text></g></svg>